HIERARCHY
ROOT Pelvis
{
	OFFSET 0.000000 0.000000 0.000000
	CHANNELS 6 Xposition Yposition Zposition Xrotation Yrotation Zrotation
	JOINT LeftUpLeg_virtual
	{
		OFFSET 0.000000 0.000000 0.000000
		CHANNELS 3 Xrotation Yrotation Zrotation
		JOINT LeftUpLeg
		{
			OFFSET 8.479700 -4.795502 -0.379100
			CHANNELS 3 Xrotation Yrotation Zrotation
			JOINT LeftLeg
			{
				OFFSET 0.024144 -32.555107 0.112900
				CHANNELS 3 Xrotation Yrotation Zrotation
				JOINT LeftFoot
				{
					OFFSET -0.024144 -32.638630 -3.012600
					CHANNELS 3 Xrotation Yrotation Zrotation
					JOINT LeftToeBase
					{
						OFFSET 0.970200 -13.225400 11.864200
						CHANNELS 3 Xrotation Yrotation Zrotation
						End Site
						{
							OFFSET 0 0 0
						}
					}
				}
			}
		}
	}
	JOINT RightUpLeg_virtual
	{
		OFFSET 0.000000 0.000000 0.000000
		CHANNELS 3 Xrotation Yrotation Zrotation
		JOINT RightUpLeg
		{
			OFFSET -8.479700 -4.795502 -0.379100
			CHANNELS 3 Xrotation Yrotation Zrotation
			JOINT RightLeg
			{
				OFFSET -0.023144 -32.555092 0.112900
				CHANNELS 3 Xrotation Yrotation Zrotation
				JOINT RightFoot
				{
					OFFSET 0.023144 -32.638641 -3.012700
					CHANNELS 3 Xrotation Yrotation Zrotation
					JOINT RightToeBase
					{
						OFFSET -0.970200 -13.225400 11.864200
						CHANNELS 3 Xrotation Yrotation Zrotation
						End Site
						{
							OFFSET 0 0 0
						}
					}
				}
			}
		}
	}
	JOINT Hips_virtual
	{
		OFFSET 0.000000 0.000000 0.000000
		CHANNELS 3 Xrotation Yrotation Zrotation
		JOINT Hips
		{
			OFFSET -0.000000 -0.000000 -0.000000
			CHANNELS 3 Xrotation Yrotation Zrotation
			JOINT Spine
			{
				OFFSET 0.000000 7.722000 1.166200
				CHANNELS 3 Xrotation Yrotation Zrotation
				JOINT Spine1
				{
					OFFSET 0.000000 12.024101 0.248800
					CHANNELS 3 Xrotation Yrotation Zrotation
					JOINT Spine2
					{
						OFFSET 0.000000 11.502998 -0.491200
						CHANNELS 3 Xrotation Yrotation Zrotation
						JOINT Neck_virtual
						{
							OFFSET 0.000000 0.000000 0.000000
							CHANNELS 3 Xrotation Yrotation Zrotation
							JOINT Neck
							{
								OFFSET 0.000000 18.430702 -3.123100
								CHANNELS 3 Xrotation Yrotation Zrotation
								JOINT Head
								{
									OFFSET 0.000000 9.051102 1.034000
									CHANNELS 3 Xrotation Yrotation Zrotation
									End Site
									{
										OFFSET 0 0 0
									}
								}
							}
						}
						JOINT LeftShoulder_virtual
						{
							OFFSET 0.000000 0.000000 0.000000
							CHANNELS 3 Xrotation Yrotation Zrotation
							JOINT LeftShoulder
							{
								OFFSET 6.197800 13.665199 -4.064700
								CHANNELS 3 Xrotation Yrotation Zrotation
								JOINT LeftArm
								{
									OFFSET 7.778100 -0.187103 -1.709300
									CHANNELS 3 Xrotation Yrotation Zrotation
									JOINT LeftForeArm
									{
										OFFSET 22.049376 0.000000 0.000000
										CHANNELS 3 Xrotation Yrotation Zrotation
										JOINT LeftHand
										{
											OFFSET 23.009392 0.000000 0.000000
											CHANNELS 3 Xrotation Yrotation Zrotation
											End Site
											{
												OFFSET 0 0 0
											}
										}
									}
								}
							}
						}
						JOINT RightShoulder_virtual
						{
							OFFSET 0.000000 0.000000 0.000000
							CHANNELS 3 Xrotation Yrotation Zrotation
							JOINT RightShoulder
							{
								OFFSET -6.197800 13.665199 -4.064700
								CHANNELS 3 Xrotation Yrotation Zrotation
								JOINT RightArm
								{
									OFFSET -7.778100 -0.187103 -1.709300
									CHANNELS 3 Xrotation Yrotation Zrotation
									JOINT RightForeArm
									{
										OFFSET -22.049376 0.000000 0.000000
										CHANNELS 3 Xrotation Yrotation Zrotation
										JOINT RightHand
										{
											OFFSET -23.009392 0.000000 0.000000
											CHANNELS 3 Xrotation Yrotation Zrotation
											End Site
											{
												OFFSET 0 0 0
											}
										}
									}
								}
							}
						}
					}
				}
			}
		}
	}
}
MOTION
Frames: 11
Frame Time: 0.03333333
0.245976 78.029526 0.217957 0.000000 0.000000 0.000000 -178.379898 24.309873 -177.800916 -22.648316 -6.364643 9.919844 26.183742 -0.189323 -0.974479 -2.509907 -2.912987 -13.547436 0.000000 0.000000 0.000000 -178.379898 24.309873 -177.800916 -20.553670 -12.539976 -19.502326 39.524952 0.298732 1.446193 -16.977928 -8.188739 9.372822 0.000000 0.000000 0.000000 -178.379898 24.309873 -177.800916 0.000000 0.000000 0.000000 5.547883 0.033779 -0.529650 11.095619 0.009767 -0.734627 0.000000 0.000000 0.000000 11.095630 0.009768 -0.734627 -10.509365 -1.525005 -3.378806 0.000000 0.000000 0.000000 11.095630 0.009768 -0.734627 9.458518 -6.444352 -14.996468 -9.678084 10.609534 -35.777221 0.014704 -55.260984 0.179041 0.000000 0.000000 0.000000 11.095630 0.009768 -0.734627 -3.413062 0.044904 -0.357071 -8.509094 -11.385600 60.673574 -0.093544 56.136795 -0.118041 0.000000 0.000000 0.000000 
0.216538 77.901337 0.238979 0.000000 0.000000 0.000000 -178.907339 25.253433 -177.748720 -23.580969 -5.205568 10.572030 27.206500 -0.210942 -1.012473 -3.057648 -3.367718 -13.475378 0.000000 0.000000 0.000000 -178.907339 25.253433 -177.748720 -21.380314 -11.661264 -19.103148 40.070702 0.301739 1.464905 -17.064854 -8.074363 9.328316 0.000000 0.000000 0.000000 -178.907339 25.253433 -177.748720 0.000000 0.000000 0.000000 5.540989 -0.008360 -0.573724 11.081762 -0.077128 -0.835932 0.000000 0.000000 0.000000 11.081763 -0.077127 -0.835931 -10.962304 -1.919709 -3.250077 0.000000 0.000000 0.000000 11.081763 -0.077127 -0.835931 9.412424 -6.453413 -14.019423 -8.662135 10.477077 -35.400485 0.010195 -54.481940 0.179125 0.000000 0.000000 0.000000 11.081763 -0.077127 -0.835931 -3.299630 0.252111 -0.421619 -8.140540 -9.974491 59.691851 -0.093548 55.025414 -0.121965 0.000000 0.000000 0.000000 
0.177531 77.703575 0.264053 0.000000 0.000000 0.000000 -179.699449 26.638376 -177.639041 -24.838478 -3.926470 11.439791 28.638092 -0.238923 -1.065239 -3.840573 -3.601855 -13.455544 0.000000 0.000000 0.000000 -179.699449 26.638376 -177.639041 -22.607916 -10.458779 -18.563875 40.847950 0.306564 1.491481 -17.176758 -7.804242 9.271840 0.000000 0.000000 0.000000 -179.699449 26.638376 -177.639041 0.000000 -0.000001 0.000000 5.532036 -0.051689 -0.620804 11.063663 -0.166392 -0.951347 0.000000 0.000000 0.000000 11.063664 -0.166379 -0.951351 -11.367813 -2.308020 -3.134615 0.000000 0.000000 0.000000 11.063664 -0.166379 -0.951351 9.287386 -6.480157 -13.016979 -7.148116 10.286343 -34.868126 0.002861 -53.374380 0.177142 0.000000 0.000000 0.000000 11.063664 -0.166379 -0.951351 -3.131418 0.557777 -0.519412 -7.620058 -7.972472 58.297297 -0.094692 53.382836 -0.125835 0.000000 0.000000 0.000000 
0.102982 77.326141 0.305836 0.000000 0.000000 0.000000 178.788903 29.227179 -177.334838 -27.049392 -2.274337 12.931083 31.228564 -0.285200 -1.159588 -5.272935 -3.317890 -13.507516 0.000000 0.000000 0.000000 178.788903 29.227179 -177.334838 -24.943636 -8.322383 -17.541428 42.274083 0.314305 1.539776 -17.360488 -7.218785 9.180660 0.000000 0.000000 0.000000 178.788903 29.227179 -177.334838 0.000000 0.000000 0.000000 5.516635 -0.098214 -0.677308 11.032430 -0.262070 -1.106971 0.000000 0.000000 0.000000 11.032436 -0.262061 -1.106975 -11.644144 -2.672793 -3.043679 0.000000 0.000000 0.000000 11.032436 -0.262061 -1.106975 8.947988 -6.559116 -11.945462 -4.288828 9.928077 -33.890890 -0.012152 -51.337027 0.169238 0.000000 0.000000 0.000000 11.032436 -0.262061 -1.106975 -2.814932 1.132003 -0.706647 -6.670060 -4.296608 55.732670 -0.098532 50.295935 -0.129481 0.000000 0.000000 0.000000 
0.011537 76.831001 0.345778 0.000000 0.000000 0.000000 176.812123 32.514972 -176.753070 -29.680795 -0.682462 14.771785 34.384624 -0.339505 -1.272863 -7.059226 -2.501165 -13.671529 0.000000 0.000000 0.000000 176.812123 32.514972 -176.753070 -27.999795 -5.962452 -16.251192 44.030080 0.318823 1.598325 -17.565536 -6.173516 9.084215 0.000000 0.000000 0.000000 176.812123 32.514972 -176.753070 0.000000 -0.000002 0.000000 5.500067 -0.144941 -0.737490 10.998609 -0.359421 -1.282565 0.000000 0.000000 0.000000 10.998613 -0.359415 -1.282568 -11.857301 -3.028263 -2.963668 0.000000 0.000000 0.000000 10.998613 -0.359415 -1.282568 8.482503 -6.666480 -10.834773 -0.632543 9.485283 -32.710971 -0.030045 -48.869628 0.157721 0.000000 0.000000 0.000000 10.998613 -0.359415 -1.282568 -2.413234 1.858725 -0.950985 -5.525520 0.166511 52.613784 -0.105290 46.386465 -0.129183 0.000000 0.000000 0.000000 
-0.091483 76.240219 0.364666 0.000000 0.000000 0.000000 174.418347 36.302182 -175.784057 -32.386168 0.568762 16.734001 37.782885 -0.393347 -1.392452 -9.030722 -0.951564 -13.948651 0.000000 0.000000 0.000000 174.418347 36.302182 -175.784057 -31.592005 -3.797486 -14.924535 45.930420 0.317531 1.660468 -17.717425 -4.408174 8.999650 0.000000 0.000000 0.000000 174.418347 36.302182 -175.784057 0.000000 -0.000003 0.000000 5.485226 -0.190565 -0.798749 10.967960 -0.456347 -1.467951 0.000000 0.000000 0.000000 10.967957 -0.456352 -1.467954 -12.035881 -3.381588 -2.889732 0.000000 0.000000 0.000000 10.967957 -0.456352 -1.467954 7.923480 -6.793120 -9.696481 3.618956 8.990132 -31.439839 -0.048225 -46.189684 0.144629 0.000000 0.000000 0.000000 10.967957 -0.456352 -1.467954 -1.949884 2.693290 -1.242067 -4.293301 5.023891 49.216342 -0.114433 41.886921 -0.125084 0.000000 0.000000 0.000000 
-0.192070 75.568184 0.352495 0.000000 0.000000 0.000000 171.627983 40.379296 -174.322861 -35.071724 1.523402 18.735035 41.341899 -0.444918 -1.514959 -11.150951 1.114410 -14.297605 0.000000 0.000000 0.000000 171.627983 40.379296 -174.322861 -35.558334 -1.904350 -13.537837 47.961001 0.311193 1.725614 -17.868885 -2.103387 8.913851 0.000000 0.000000 0.000000 171.627983 40.379296 -174.322861 0.000000 -0.000004 0.000001 5.475013 -0.233635 -0.858420 10.946317 -0.549790 -1.653780 0.000000 0.000000 0.000000 10.946328 -0.549778 -1.653782 -12.208566 -3.739106 -2.814221 0.000000 0.000000 0.000000 10.946328 -0.549778 -1.653782 7.303177 -6.929795 -8.542114 8.264794 8.477113 -30.187455 -0.064726 -43.516214 0.131101 0.000000 0.000000 0.000000 10.946328 -0.549778 -1.653782 -1.448406 3.591146 -1.569064 -3.068867 9.890794 45.806073 -0.120214 37.030089 -0.109130 0.000000 0.000000 0.000000 
-0.271483 74.828903 0.292494 0.000000 0.000000 0.000000 168.440975 44.523206 -172.282711 -37.499904 2.175432 20.591408 44.877317 -0.490187 -1.633555 -13.328325 3.644708 -14.739840 0.000000 0.000000 0.000000 168.440975 44.523206 -172.282711 -39.673540 -0.440865 -12.237819 50.026624 0.302722 1.790698 -18.020957 0.734765 8.835207 0.000000 0.000000 0.000000 168.440975 44.523206 -172.282711 0.000000 0.000000 0.000000 5.472419 -0.273694 -0.913917 10.939728 -0.638331 -1.830241 0.000000 0.000000 0.000000 10.939738 -0.638312 -1.830249 -12.403980 -4.107950 -2.731977 0.000000 0.000000 0.000000 10.939738 -0.638312 -1.830249 6.653645 -7.067139 -7.382980 13.104373 7.983222 -29.063456 -0.079165 -41.067271 0.117475 0.000000 0.000000 0.000000 10.939738 -0.638312 -1.830249 -0.932256 4.507650 -1.920478 -1.932364 14.389566 42.641175 -0.109155 32.047668 -0.072560 0.000000 0.000000 0.000000 
-0.305148 74.031860 0.182100 0.000000 0.000000 0.000000 164.856041 48.507686 -169.616574 -39.697681 2.623186 22.277628 48.363996 -0.530370 -1.747402 -15.526878 6.360086 -15.189818 0.000000 0.000000 0.000000 164.856041 48.507686 -169.616574 -43.808031 0.648474 -11.052723 52.184824 0.296741 1.857676 -18.250265 3.844538 8.736591 0.000000 0.000000 0.000000 164.856041 48.507686 -169.616574 0.000001 0.000000 0.000000 5.480279 -0.310071 -0.963111 10.954000 -0.719044 -1.988072 0.000000 0.000000 0.000000 10.954016 -0.719035 -1.988082 -12.650147 -4.494248 -2.635156 0.000000 0.000000 0.000000 10.954016 -0.719035 -1.988082 6.007310 -7.195634 -6.230375 17.938927 7.547993 -28.176468 -0.086392 -39.060670 0.105297 0.000000 0.000000 0.000000 10.954016 -0.719035 -1.988082 -0.424236 5.397991 -2.284067 -0.991848 18.110248 40.023922 -0.089862 27.172386 -0.038669 0.000000 0.000000 0.000000 
-0.182202 73.180168 -0.030855 0.000000 0.000000 0.000000 161.237066 52.135066 -166.611496 -41.264943 2.925146 23.716333 51.722854 -0.570011 -1.854339 -17.834223 9.084034 -15.736694 0.000000 0.000000 0.000000 161.237066 52.135066 -166.611496 -47.510683 1.436043 -10.051051 54.546601 0.302796 1.930349 -18.797418 6.958084 8.638376 0.000000 0.000000 0.000000 161.237066 52.135066 -166.611496 -0.000002 -0.000001 -0.000000 5.498557 -0.345644 -1.002893 10.989096 -0.794478 -2.115241 0.000000 0.000000 0.000000 10.989110 -0.794450 -2.115248 -12.862062 -4.866178 -2.557063 0.000000 0.000000 0.000000 10.989110 -0.794450 -2.115248 5.436811 -7.313349 -5.095671 22.274531 6.921051 -27.665451 -0.083771 -37.079676 0.093302 0.000000 0.000000 0.000000 10.989110 -0.794450 -2.115248 0.039503 6.229285 -2.603962 -0.303253 20.939521 38.521191 -0.074799 22.628874 -0.015771 0.000000 0.000000 0.000000 
-0.110894 72.293068 -0.189692 0.000000 0.000000 0.000000 156.738020 55.111765 -162.653660 -43.259748 3.221467 24.958399 54.918334 -0.603242 -1.953015 -19.887064 11.447370 -16.170447 0.000000 0.000000 0.000000 156.738020 55.111765 -162.653660 -51.509540 1.832751 -9.280639 56.859928 0.314580 2.000417 -19.246756 10.081978 8.540667 0.000000 0.000000 0.000000 156.738020 55.111765 -162.653660 -0.000001 -0.000001 -0.000000 5.539291 -0.371789 -1.030314 11.069398 -0.850752 -2.209252 0.000000 0.000000 0.000000 11.069409 -0.850740 -2.209255 -13.406771 -5.347417 -2.374742 0.000000 0.000000 0.000000 11.069409 -0.850740 -2.209255 4.852351 -7.386966 -3.988801 26.796804 7.032194 -27.561507 -0.077140 -37.243983 0.090619 0.000000 0.000000 0.000000 11.069409 -0.850740 -2.209255 0.475747 6.921116 -2.995027 -0.123342 21.605118 37.585606 -0.063867 18.677680 -0.004391 0.000000 0.000000 0.000000 
